<svg width="24" height="24" viewBox="0 0 24 24" fill="none" xmlns="http://www.w3.org/2000/svg">
<rect x="3" y="8" width="18" height="13" rx="3" stroke="#5F6FFF" stroke-width="1.8"/>
<path d="M9 13h2m4 0h-2m-2 0v2m0-2V11" stroke="#5F6FFF" stroke-width="1.8" stroke-linecap="round"/>
<circle cx="9" cy="13" r="1" fill="#5F6FFF"/>
<circle cx="15" cy="13" r="1" fill="#5F6FFF"/>
<path d="M12 8V5" stroke="#5F6FFF" stroke-width="1.8" stroke-linecap="round"/>
<circle cx="12" cy="4" r="1.5" fill="#5F6FFF"/>
<path d="M3 14H1.5a.5.5 0 01-.5-.5v-2a.5.5 0 01.5-.5H3" stroke="#5F6FFF" stroke-width="1.8" stroke-linecap="round"/>
<path d="M21 14h1.5a.5.5 0 00.5-.5v-2a.5.5 0 00-.5-.5H21" stroke="#5F6FFF" stroke-width="1.8" stroke-linecap="round"/>
</svg>
